<svg width="155" height="57" viewBox="0 0 155 57" fill="none" xmlns="http://www.w3.org/2000/svg">
<g clip-path="url(#clip0_965_2)">
<path fill-rule="evenodd" clip-rule="evenodd" d="M30.1911 0C34.2381 1.84895 35.5871 4.4482 35.2094 7.18143C34.6158 9.75388 32.0527 12.0316 30.0562 13.425C25.8742 16.3458 19.8306 18.8914 14.6773 17.2837C10.6573 16.0242 11.5476 11.4689 11.4667 11.9512C11.0889 13.8805 11.5206 16.0242 13.1125 17.3373C14.5424 18.5163 16.9976 18.8379 18.8053 18.8379C20.4242 18.8379 22.07 18.5431 23.6618 18.1411C22.6635 18.6503 21.6383 19.1326 20.586 19.5346C16.3231 21.1423 12.7617 20.4724 9.11937 21.3835C2.42823 23.0449 0 29.3152 0 29.3152C0 29.3152 2.99482 22.9913 15.19 23.3129C15.2709 23.3129 15.5407 23.3396 15.6486 23.3396C10.8731 26.5016 8.22902 31.0302 12.7887 41.0521C11.8444 26.5284 25.7393 25.403 33.2668 21.3031C44.7335 15.0864 45.5429 2.89401 30.1911 0Z" fill="#5679FF"/>
<path fill-rule="evenodd" clip-rule="evenodd" d="M46.0289 31.6468C48.1063 32.8794 49.6712 33.2009 52.693 33.067L51.6408 32.5042C50.2108 31.8879 49.968 31.7271 48.6729 30.8161C44.41 27.6541 44.8417 20.9818 44.518 16.212C44.3021 13.5056 43.9783 10.9867 43.088 8.76264C42.8452 8.17312 42.0358 6.99408 42.0358 6.99408C43.3308 11.3619 43.2229 13.7736 40.6598 19.0257C37.8538 24.7869 43.088 27.9489 39.2028 28.4848C36.5318 28.8599 37.2602 29.3155 37.3951 30.7089C37.4761 31.6468 36.8825 31.7003 35.8303 31.8075C35.9922 33.5761 36.1001 33.3349 34.5622 33.5761C32.9434 33.8173 34.4543 37.542 31.1627 36.8185C29.1122 36.3629 27.898 34.38 25.0381 34.4336C18.0232 41.3202 29.382 45.822 33.5909 55.9243C34.2924 51.6636 29.1121 45.6613 35.5874 41.5614C33.6988 46.6795 33.429 52.8963 38.3125 56.5942C37.9347 55.2544 37.2063 53.9413 37.0444 52.28C36.8016 49.9755 36.9904 47.3226 37.6649 45.1789C40.7137 35.1303 36.6667 51.3957 47.3509 53.191C45.1115 50.8062 43.8434 49.4663 44.0863 45.2593C44.491 38.2923 44.3561 37.7027 43.142 34.7015C43.4387 35.425 46.1638 36.9792 47.8905 40.1412C49.8871 43.8123 48.9158 45.1253 48.538 48.7696C54.15 37.5152 45.813 36.1485 46.0289 31.6468Z" fill="#5679FF"/>
<path fill-rule="evenodd" clip-rule="evenodd" d="M20.5321 3.91213C20.6131 3.83174 21.8811 5.22516 23.0413 7.44926C23.0413 7.42246 23.0413 7.39566 23.0413 7.39566C23.8237 2.33115 17.5643 0.535788 15.7566 0.241028C18.5356 2.46513 18.7784 9.70015 22.7715 8.46752C21.8811 6.64536 20.9638 4.66243 20.5321 3.91213Z" fill="#5679FF"/>
<path fill-rule="evenodd" clip-rule="evenodd" d="M26.5488 5.84146C25.8743 6.53816 25.3616 7.0473 24.5792 8.89625C24.5792 8.86945 24.5792 8.86945 24.5792 8.84265C23.7698 4.63562 29.6245 3.05463 30.6768 2.94745C28.8151 4.87679 27.1154 11.6563 24.876 9.75373C25.2267 8.01196 26.0901 6.59176 26.5488 5.84146Z" fill="#5679FF"/>
<path fill-rule="evenodd" clip-rule="evenodd" d="M18.8863 11.0673C19.9385 10.6118 20.7479 10.2634 23.1761 10.183C23.1492 10.183 23.1492 10.1562 23.1222 10.1562C18.7514 7.4498 14.4885 13.2646 13.9219 14.3901C16.8897 13.1574 25.7932 13.6398 24.0125 10.8797C21.8811 10.5314 19.9115 10.8797 18.8863 11.0673Z" fill="#5679FF"/>
<path fill-rule="evenodd" clip-rule="evenodd" d="M2.05066 19.1058C2.07764 19.0254 3.58854 18.8914 4.23607 18.3823C5.07246 17.8999 4.10117 17.0156 2.48235 18.5698C2.32046 18.7306 2.18556 18.9182 2.05066 19.1058Z" fill="#5679FF"/>
<path fill-rule="evenodd" clip-rule="evenodd" d="M3.23767 14.9785C4.85649 14.791 5.58496 13.9335 7.01493 13.7995C8.68771 13.6387 9.06543 16.3988 5.20724 15.6217C4.34387 15.4609 3.6154 15.1125 3.23767 14.9785Z" fill="#5679FF"/>
</g>
<path d="M77.7433 18.3374V35.1989H75.0263L67.0813 23.7137H66.9414V35.1989H63.8869V18.3374H66.6203L74.557 29.8309H74.7052V18.3374H77.7433ZM90.235 22.9727C90.1582 22.2536 89.8343 21.6938 89.2635 21.2931C88.6982 20.8924 87.9627 20.6921 87.057 20.6921C86.4203 20.6921 85.8742 20.7881 85.4186 20.9803C84.963 21.1724 84.6145 21.4331 84.373 21.7624C84.1315 22.0917 84.008 22.4677 84.0025 22.8903C84.0025 23.2416 84.0821 23.5463 84.2413 23.8042C84.4059 24.0622 84.6282 24.2817 84.9082 24.4629C85.1881 24.6385 85.4982 24.7867 85.8385 24.9075C86.1788 25.0282 86.5219 25.1298 86.8677 25.2121L88.4484 25.6073C89.0851 25.7555 89.6971 25.9558 90.2844 26.2083C90.8772 26.4608 91.4069 26.7791 91.8734 27.1634C92.3454 27.5476 92.7187 28.0114 92.9931 28.5548C93.2676 29.0981 93.4048 29.7348 93.4048 30.4648C93.4048 31.4528 93.1523 32.3228 92.6473 33.0748C92.1424 33.8212 91.4124 34.4058 90.4573 34.8284C89.5078 35.2456 88.3579 35.4541 87.0076 35.4541C85.6958 35.4541 84.5569 35.2511 83.5909 34.8449C82.6303 34.4387 81.8784 33.8459 81.335 33.0665C80.7971 32.2871 80.5062 31.3376 80.4623 30.2179H83.4674C83.5113 30.8052 83.6924 31.2937 84.0107 31.6834C84.3291 32.0731 84.7435 32.364 85.254 32.5561C85.7699 32.7482 86.3462 32.8442 86.9829 32.8442C87.6471 32.8442 88.2289 32.7454 88.7283 32.5478C89.2333 32.3448 89.6285 32.0648 89.9139 31.7081C90.1993 31.3458 90.3448 30.9232 90.3503 30.4401C90.3448 30.001 90.2158 29.6388 89.9633 29.3534C89.7108 29.0625 89.3568 28.821 88.9012 28.6289C88.4512 28.4313 87.9242 28.2556 87.3205 28.1019L85.4022 27.6079C84.0135 27.2512 82.9157 26.7105 82.1089 25.986C81.3075 25.256 80.9068 24.2872 80.9068 23.0797C80.9068 22.0862 81.1758 21.2163 81.7137 20.4698C82.2571 19.7233 82.9953 19.1443 83.9284 18.7326C84.8615 18.3155 85.9181 18.1069 87.0982 18.1069C88.2947 18.1069 89.3431 18.3155 90.2432 18.7326C91.1489 19.1443 91.8597 19.7178 92.3756 20.4533C92.8916 21.1833 93.1578 22.0231 93.1743 22.9727H90.235ZM95.3869 20.8979V18.3374H108.84V20.8979H103.628V35.1989H100.598V20.8979H95.3869ZM110.281 18.3374H113.73L117.855 25.7966H118.02L122.145 18.3374H125.594L119.461 28.9088V35.1989H116.414V28.9088L110.281 18.3374ZM127.758 35.1989V18.3374H130.812V32.6384H138.238V35.1989H127.758ZM140.89 35.1989V18.3374H151.856V20.8979H143.944V25.4756H151.288V28.0361H143.944V32.6384H151.922V35.1989H140.89Z" fill="#5679FF"/>
<defs>
<clipPath id="clip0_965_2">
<rect width="52.6927" height="56.5672" fill="white"/>
</clipPath>
</defs>
</svg>
